<?xml version="1.0" encoding="utf-8"?>
<!-- Generator: Adobe Illustrator 16.2.1, SVG Export Plug-In . SVG Version: 6.00 Build 0)  -->
<!DOCTYPE svg PUBLIC "-//W3C//DTD SVG 1.1//EN" "http://www.w3.org/Graphics/SVG/1.1/DTD/svg11.dtd">
<svg version="1.1" xmlns="http://www.w3.org/2000/svg" xmlns:xlink="http://www.w3.org/1999/xlink" x="0px" y="0px" width="3073px"
	 height="285px" viewBox="0 0 3073 285" enable-background="new 0 0 3073 285" xml:space="preserve">
<g id="Text">
	<g>
		<path fill="#3B3053" d="M389.575,150.804c0-56.101,42.586-95.684,102.607-95.684c16.291,0,33.726,3.417,45.73,8.258
			c0.286,17.086,0.571,27.623,1.429,40.438h-15.148C520.477,85.59,509.33,73.63,486.465,73.63
			c-31.439,0-48.302,29.332-48.302,73.188c0,40.438,16.005,73.756,48.017,73.756c22.007,0,38.013-10.821,40.871-29.616h15.148
			c-0.857,14.809-1.715,29.901-1.715,40.153c-14.577,5.126-39.442,8.828-59.735,8.828
			C423.015,239.938,389.575,204.911,389.575,150.804z"/>
		<path fill="#3B3053" d="M555.228,167.605c0-43.57,29.725-73.756,74.025-73.756c45.159,0,72.597,26.769,72.597,71.763
			c0,43.855-30.296,74.041-74.597,74.041C581.522,239.653,555.228,213.454,555.228,167.605z M655.548,168.175
			c0-33.034-7.717-56.385-27.438-56.385c-18.006,0-26.295,21.643-26.295,53.538c0,34.458,8.86,56.386,27.152,56.386
			C648.117,221.713,655.548,200.07,655.548,168.175z"/>
		<path fill="#3B3053" d="M708.788,223.706l10.003-1.424c6.574-0.854,10.003-3.702,10.003-21.073v-63.79
			c0-12.815-2.572-16.517-18.292-19.934V105.81c19.436-3.702,43.729-7.974,62.021-13.384v25.914
			c7.431-13.384,21.436-24.206,38.299-24.206c4.287,0,11.146,0.854,14.005,1.708l-6.288,36.167
			c-4.287-2.848-12.29-4.841-18.863-4.841c-7.717,0-19.149,1.709-27.152,8.259v65.783c0,17.087,3.144,20.789,10.289,21.643
			l13.147,1.14v12.245c-7.145-0.285-34.012-0.854-47.159-0.854c-13.719,0-32.868,0.569-40.014,0.854V223.706z"/>
		<path fill="#3B3053" d="M832.253,223.706l10.003-1.424c6.574-0.854,10.003-3.702,10.003-21.073v-63.79
			c0-12.815-2.572-16.517-18.292-19.934V105.81c19.436-3.702,43.729-7.974,62.021-13.384v20.219
			c10.289-9.967,25.723-18.795,43.443-18.795c32.011,0,47.445,18.795,47.445,47.842v59.518c0,18.226,3.43,21.073,10.29,21.928
			l7.145,0.854v12.245c-7.145-0.285-30.582-0.854-41.443-0.854c-11.432,0-29.438,0.569-36.584,0.854v-12.53l6.574-1.139
			c5.716-1.14,10.003-3.987,10.003-21.358v-54.962c0-17.656-4.858-25.914-21.436-25.914c-10.29,0-17.149,3.132-25.438,7.119v73.757
			c0,17.087,3.715,20.219,10.289,21.643l7.146,1.14v12.245c-7.146-0.285-28.01-0.854-41.157-0.854
			c-13.719,0-32.869,0.569-40.014,0.854V223.706z"/>
		<path fill="#3B3053" d="M1007.792,169.599c0-47.272,32.011-75.75,72.311-75.75c42.3,0,58.02,26.769,58.02,56.385
			c0,3.702,0,8.259-0.572,11.961h-84.029c-0.286,0.854-0.286,4.556-0.286,5.126c0,26.769,16.863,44.709,42.586,44.709
			c15.434,0,25.151-2.848,34.297-7.404l1.429,10.537c-5.145,10.821-26.009,24.206-52.875,24.206
			C1034.659,239.369,1007.792,212.315,1007.792,169.599z M1092.107,146.247c4.288,0,6.288-2.848,6.288-6.549
			c0-14.239-5.145-27.623-19.721-27.623c-14.862,0-22.579,15.377-24.294,34.172H1092.107z"/>
		<path fill="#3B3053" d="M1146.12,223.706l10.003-1.424c6.574-0.854,10.003-3.702,10.003-21.073v-63.79
			c0-12.815-2.572-16.517-18.292-19.934V105.81c19.436-3.702,43.729-7.974,62.021-13.384v25.914
			c7.431-13.384,21.436-24.206,38.299-24.206c4.287,0,11.146,0.854,14.005,1.708l-6.288,36.167
			c-4.287-2.848-12.29-4.841-18.863-4.841c-7.717,0-19.149,1.709-27.152,8.259v65.783c0,17.087,3.144,20.789,10.289,21.643
			l13.147,1.14v12.245c-7.145-0.285-34.012-0.854-47.159-0.854c-13.719,0-32.868,0.569-40.014,0.854V223.706z"/>
		<path fill="#3B3053" d="M1377.336,235.667c-9.718,0-32.869,0.284-40.014,0.569v-13.1l9.432-1.139
			c7.431-1.14,11.718-5.696,11.718-23.352V96.412c0-17.656-4.287-22.212-11.718-23.067l-9.432-1.424V58.537
			c7.145,0.285,28.867,0.569,39.728,0.569c16.292-0.285,33.44-1.424,48.874-1.424c39.442,0,64.022,14.808,64.022,43.286
			c0,20.219-22.293,36.167-39.442,38.729v0.854c22.865,2.278,46.301,19.08,46.301,41.862c0,33.888-27.438,54.677-71.167,54.677
			C1411.633,237.091,1392.77,235.667,1377.336,235.667z M1442.501,104.386c0-17.941-9.432-28.478-26.295-28.478
			c-3.715,0-8.574,0-12.861,0.569v57.81c4.287,0.285,7.431,0.285,13.147,0.285C1433.069,134.572,1442.501,120.618,1442.501,104.386z
			 M1448.789,183.838c0-19.08-10.003-31.041-29.725-31.041c-5.716,0-11.146,0.285-15.72,0.854v52.684
			c0,8.543,3.716,12.53,18.006,12.53C1441.358,218.865,1448.789,203.487,1448.789,183.838z"/>
		<path fill="#3B3053" d="M1506.147,223.706l10.003-1.424c6.574-0.854,10.003-3.702,10.003-21.073v-63.79
			c0-12.815-2.572-16.517-18.292-19.934V105.81c19.436-3.702,43.729-7.974,62.021-13.384v25.914
			c7.431-13.384,21.436-24.206,38.299-24.206c4.287,0,11.146,0.854,14.005,1.708l-6.288,36.167
			c-4.287-2.848-12.29-4.841-18.863-4.841c-7.717,0-19.149,1.709-27.152,8.259v65.783c0,17.087,3.144,20.789,10.289,21.643
			l13.147,1.14v12.245c-7.146-0.285-34.012-0.854-47.159-0.854c-13.719,0-32.868,0.569-40.014,0.854V223.706z"/>
		<path fill="#3B3053" d="M1620.725,203.487c0-28.763,26.295-44.994,66.309-44.994c2.857,0,7.717,0,10.289,0.284v-12.53
			c0-19.364-8.289-27.908-28.581-27.908c-11.719,0-24.009,2.563-32.583,7.12l-2.286-12.245c9.146-9.683,30.01-19.365,51.731-19.365
			c36.584,0,56.02,17.371,56.02,46.133c0,21.928-1.144,40.438-1.144,61.227c0,15.093,5.717,18.226,19.436,18.226v10.821
			c-7.146,5.695-18.578,9.397-31.726,9.397c-19.435,0-26.866-8.828-28.866-20.788h-0.572c-6.573,11.96-20.007,20.504-39.156,20.504
			C1637.016,239.369,1620.725,223.991,1620.725,203.487z M1697.036,205.196c0-7.974,0-21.644,0.286-29.617
			c-1.715-0.284-4.859-0.284-6.574-0.284c-17.148,0-28.866,7.974-28.866,21.928c0,9.967,6.859,16.517,16.291,16.517
			C1686.461,213.739,1693.32,210.322,1697.036,205.196z"/>
		<path fill="#3B3053" d="M1763.311,171.308c0-46.988,33.727-77.458,79.171-77.458c6.859,0,13.719,0.854,20.007,1.993
			c-5.145-5.126-9.718-13.1-9.718-23.636c0-22.497,23.723-28.762,45.444-30.756c21.722-1.708,50.303-3.417,60.021-7.974v167.732
			c0,17.087,3.43,20.219,10.289,21.643l8.003,1.14v12.245c-7.146-0.285-27.152-0.854-40.3-0.854
			c-13.719,0-31.153,0.569-38.299,0.854v-12.53l6.573-0.854c6.574-0.854,10.004-4.271,10.004-21.643V74.769
			c0-11.676-7.146-16.802-20.864-16.802c-18.006,0-26.581,5.695-26.581,16.517c0,9.397,5.717,19.08,14.005,26.484
			c-1.143,13.1-1.143,22.497-0.857,37.021h-14.576c-1.144-17.372-9.718-25.915-25.151-25.915c-17.148,0-32.011,16.517-32.011,52.114
			c0,31.325,17.72,47.842,43.157,47.842c13.719,0,22.865-2.562,31.726-7.404l1.429,9.397c-4.858,12.246-24.865,25.63-52.018,25.63
			C1789.32,239.653,1763.311,212.885,1763.311,171.308z M1996.534,218.865c-9.432-11.961-17.149-26.199-34.869-55.246l29.152-35.028
			c3.716-4.271,6.859-8.828,6.859-13.1c0-3.132-3.43-5.695-12.289-5.695v-12.53c7.145,0.285,23.722,0.57,34.297,0.57
			c9.146,0,24.009-0.285,31.153-0.57v12.246c-15.147,0.569-28.295,7.974-38.013,19.649l-15.148,17.656
			c16.006,24.775,30.582,45.279,40.872,56.955c7.145,7.974,16.005,19.079,24.865,19.934l0.571,11.961
			c-4.287,2.848-16.005,3.986-23.722,3.986C2022.257,239.653,2007.681,233.104,1996.534,218.865z"/>
		<path fill="#3B3053" d="M2062.947,169.599c0-47.272,32.012-75.75,72.311-75.75c42.301,0,58.021,26.769,58.021,56.385
			c0,3.702,0,8.259-0.571,11.961h-84.029c-0.286,0.854-0.286,4.556-0.286,5.126c0,26.769,16.863,44.709,42.586,44.709
			c15.435,0,25.152-2.848,34.298-7.404l1.429,10.537c-5.145,10.821-26.009,24.206-52.875,24.206
			C2089.814,239.369,2062.947,212.315,2062.947,169.599z M2147.263,146.247c4.287,0,6.287-2.848,6.287-6.549
			c0-14.239-5.145-27.623-19.721-27.623c-14.862,0-22.579,15.377-24.294,34.172H2147.263z"/>
		<path fill="#3B3053" d="M2216.538,202.063v-86.002h-17.435v-14.809c22.293-5.411,40.014-25.345,45.444-41.292h16.006v37.305
			h39.441v18.795h-39.441v78.028c0,15.947,5.43,21.358,20.578,21.358c6.573,0,14.005-1.14,18.292-2.278l0.857,10.536
			c-7.432,9.113-26.009,15.947-44.587,15.947C2227.113,239.653,2216.538,225.984,2216.538,202.063z"/>
		<path fill="#3B3053" d="M2463.19,235.951c-3.716,0-39.442-0.284-44.016-0.284c-9.718,0-33.726,0.284-40.585,0.569v-13.1
			l9.432-1.139c7.431-1.14,11.719-5.696,11.719-23.352V96.412c0-17.656-4.288-22.212-11.719-23.067l-9.432-1.424V58.537
			c7.146,0.285,32.297,0.854,44.015,0.854c11.146,0,36.87-0.569,44.016-0.854v13.384l-10.289,1.424
			c-7.718,0.854-11.719,5.411-11.719,23.067V206.05c0,7.689,2.858,11.676,15.148,11.676h23.15c10.575,0,13.719-3.702,16.006-10.821
			l4.858-14.523h14.576c-2.286,14.809-4.287,35.027-4.572,44.425C2503.204,236.236,2472.336,235.951,2463.19,235.951z"/>
		<path fill="#3B3053" d="M2527.35,167.605c0-43.57,29.725-73.756,74.025-73.756c45.158,0,72.597,26.769,72.597,71.763
			c0,43.855-30.296,74.041-74.598,74.041C2553.645,239.653,2527.35,213.454,2527.35,167.605z M2627.67,168.175
			c0-33.034-7.717-56.385-27.438-56.385c-18.006,0-26.294,21.643-26.294,53.538c0,34.458,8.859,56.386,27.151,56.386
			C2620.238,221.713,2627.67,200.07,2627.67,168.175z"/>
		<path fill="#3B3053" d="M2689.313,128.876c-3.43-9.113-8.003-18.511-17.148-19.08v-12.53c7.431,0.285,22.579,0.854,34.869,0.854
			c12.576,0,33.726-0.57,41.442-0.854v12.53l-6.859,0.569c-5.43,0.285-8.288,3.417-8.288,8.259c0,3.417,2,9.397,4.001,14.808
			l21.437,58.948l21.722-58.664c1.715-4.556,4.001-11.676,4.001-15.093c0-5.126-3.716-7.974-8.86-8.543l-6.573-0.285v-12.53
			c7.146,0.285,17.148,0.854,28.01,0.854c10.289,0,17.148-0.57,24.294-0.854v12.53c-11.719,0.569-15.72,7.404-21.722,22.212
			l-41.729,104.797h-26.581L2689.313,128.876z"/>
		<path fill="#3B3053" d="M2817.639,169.599c0-47.272,32.012-75.75,72.311-75.75c42.301,0,58.021,26.769,58.021,56.385
			c0,3.702,0,8.259-0.571,11.961h-84.029c-0.286,0.854-0.286,4.556-0.286,5.126c0,26.769,16.863,44.709,42.586,44.709
			c15.435,0,25.152-2.848,34.298-7.404l1.429,10.537c-5.145,10.821-26.009,24.206-52.875,24.206
			C2844.506,239.369,2817.639,212.315,2817.639,169.599z M2901.954,146.247c4.287,0,6.287-2.848,6.287-6.549
			c0-14.239-5.145-27.623-19.721-27.623c-14.862,0-22.579,15.377-24.294,34.172H2901.954z"/>
		<path fill="#3B3053" d="M2955.967,223.706l10.004-1.424c6.573-0.854,10.003-3.702,10.003-21.073v-63.79
			c0-12.815-2.572-16.517-18.292-19.934V105.81c19.436-3.702,43.729-7.974,62.021-13.384v25.914
			c7.431-13.384,21.436-24.206,38.299-24.206c4.287,0,11.146,0.854,14.005,1.708l-6.288,36.167
			c-4.287-2.848-12.29-4.841-18.863-4.841c-7.717,0-19.149,1.709-27.152,8.259v65.783c0,17.087,3.144,20.789,10.289,21.643
			l13.147,1.14v12.245c-7.146-0.285-34.012-0.854-47.159-0.854c-13.719,0-32.868,0.569-40.014,0.854V223.706z"/>
	</g>
</g>
<g id="Logo">
	<g>
		<path fill="#543790" d="M0.896,271.375V0.159h153.392v55.884H61.945v215.333H0.896z"/>
		<path fill="#543790" d="M315.882,14.144v271.215H162.49v-55.883h92.343V14.144H315.882z"/>
	</g>
</g>
</svg>
